<svg width="13" height="178" viewBox="0 0 13 178" fill="none" xmlns="http://www.w3.org/2000/svg">
<path d="M7.5 0.5C7.5 0.223858 7.27614 0 7 0C6.72386 0 6.5 0.223858 6.5 0.5V167.014C5.10749 167.093 3.81245 167.502 2.82274 168.253C1.70127 169.104 1 170.375 1 172C1 173.627 1.72115 174.927 2.84826 175.791C3.96504 176.648 5.46041 177.065 7.02111 177C8.49334 176.937 9.85711 176.478 10.8625 175.629C11.8782 174.77 12.5 173.535 12.5 172C12.5 170.485 11.9499 169.218 10.9573 168.336C10.0758 167.552 8.88152 167.102 7.5 167.015V0.5Z" stroke="black" stroke-linecap="round" stroke-linejoin="round"/>
</svg>
