<svg width="13" height="79" viewBox="0 0 13 79" fill="none" xmlns="http://www.w3.org/2000/svg">
<path d="M7.5 1C7.5 0.723858 7.27614 0.5 7 0.5C6.72386 0.5 6.5 0.723858 6.5 1V68.014C5.10749 68.0925 3.81245 68.5023 2.82274 69.2534C1.70127 70.1044 1 71.3753 1 73C1 74.6266 1.72115 75.9266 2.84826 76.7914C3.96504 77.6483 5.46041 78.0655 7.02111 77.9996C8.49334 77.9373 9.85711 77.4783 10.8625 76.6287C11.8782 75.7703 12.5 74.535 12.5 73C12.5 71.4849 11.9499 70.2183 10.9573 69.3357C10.0758 68.5518 8.88152 68.1021 7.5 68.0155V1Z" stroke="black" stroke-linecap="round" stroke-linejoin="round"/>
</svg>
